<!-- Generated by IcoMoon.io -->
<svg version="1.1" xmlns="http://www.w3.org/2000/svg" width="32" height="32" viewBox="0 0 32 32">
    <title>Facebook Profile</title>
    <path d="M29 0h-26c-1.65 0-3 1.35-3 3v26c0 1.65 1.35 3 3 3h13v-14h-4v-4h4v-2c0-3.306 2.694-6 6-6h4v4h-4c-1.1 0-2 0.9-2 2v2h6l-1 4h-5v14h9c1.65 0 3-1.35 3-3v-26c0-1.65-1.35-3-3-3z" fill="#fff"> </path>
    <text fill="#ffffff" stroke="null" stroke-width="0" stroke-opacity="null" fill-opacity="null" x="27.5" y="19.20164" id="svg_3" font-size="20" font-family="Helvetica, Arial, sans-serif" xml:space="preserve">Aray Hsieh</text>
</svg>
