<svg width="480" height="480" xmlns="http://www.w3.org/2000/svg">
 <!-- Created with Method Draw - http://github.com/duopixel/Method-Draw/ -->

 <g>
  <title>background</title>
  <rect fill="#fff" id="canvas_background" height="482" width="482" y="-1" x="-1"/>
  <g display="none" id="canvasGrid">
   <rect fill="url(#gridpattern)" stroke-width="0" y="2" x="2" height="480" width="480" id="svg_1"/>
  </g>
 </g>
 <g>
  <title>Layer 1</title>
  <path d="m240,0l160,0q80,0 80,80l0,320q0,80 -80,80l-320,0q-80,0 -80,-80l0,-320q0,-80 80,-80l160,0z" stroke="black" stroke-width="0" fill="#93c0ed" id="svg_2"/>
  <path d="m240,40l120,0q80,0 80,80l0,240q0,80 -80,80l-240,0q-80,0 -80,-80l0,-240q0,-80 80,-80l120,0z" stroke="black" stroke-width="0" fill="#78b3ed" id="svg_3"/>
 </g>
</svg>