<?xml version="1.0" encoding="UTF-8" standalone="no"?>
<svg
   xmlns:dc="http://purl.org/dc/elements/1.1/"
   xmlns:cc="http://creativecommons.org/ns#"
   xmlns:rdf="http://www.w3.org/1999/02/22-rdf-syntax-ns#"
   xmlns:svg="http://www.w3.org/2000/svg"
   xmlns="http://www.w3.org/2000/svg"
   xmlns:sodipodi="http://sodipodi.sourceforge.net/DTD/sodipodi-0.dtd"
   xmlns:inkscape="http://www.inkscape.org/namespaces/inkscape"
   version="1.1"
   width="466.02829"
   height="130.79859"
   viewBox="0,0,466.02829,130.79859"
   id="svg58"
   sodipodi:docname="喵-2.svg">
  <metadata
     id="metadata64">
    <rdf:RDF>
      <cc:Work
         rdf:about="">
        <dc:format>image/svg+xml</dc:format>
        <dc:type
           rdf:resource="http://purl.org/dc/dcmitype/StillImage" />
      </cc:Work>
    </rdf:RDF>
  </metadata>
  <defs
     id="defs62" />
  <sodipodi:namedview
     pagecolor="#ffffff"
     bordercolor="#666666"
     borderopacity="1"
     objecttolerance="10"
     gridtolerance="10"
     guidetolerance="10"
     inkscape:pageopacity="0"
     inkscape:pageshadow="2"
     inkscape:window-width="640"
     inkscape:window-height="480"
     id="namedview60"
     showgrid="false" />
  <path
     d="M 0,27.0631 C 0,12.21845 12.034,0.18444 26.87869,0.18444 h 78.91194 c 7.12866,0 13.96537,2.83186 19.00609,7.87258 5.04075,5.04071 7.87261,11.87742 7.87261,19.00608 v 76.66465 c 0,14.84465 -12.034,26.87866 -26.87868,26.87866 H 26.87871 C 12.03406,130.60641 3e-5,118.57244 3e-5,103.72775 Z"
     fill="#93c0ed"
     fill-rule="evenodd"
     stroke="#000000"
     stroke-width="0"
     stroke-linecap="square"
     id="path38"
     style="mix-blend-mode:normal;stroke-linejoin:miter;stroke-miterlimit:10;stroke-dasharray:none;stroke-dashoffset:0" />
  <path
     d="m 9.78166,32.71554 c 0,-12.65567 10.25947,-22.91516 22.91518,-22.91516 H 99.9725 c 6.07747,0 11.90605,2.41428 16.20347,6.7117 4.29744,4.29741 6.71173,10.12599 6.71173,16.20346 v 65.35975 c 0,12.65567 -10.25948,22.91516 -22.91518,22.91516 H 32.69686 c -12.65567,0 -22.91518,-10.25945 -22.91518,-22.91516 z"
     fill="#78b3ed"
     fill-rule="evenodd"
     stroke="#000000"
     stroke-width="0"
     stroke-linecap="square"
     id="path40"
     style="mix-blend-mode:normal;stroke-linejoin:miter;stroke-miterlimit:10;stroke-dasharray:none;stroke-dashoffset:0" />
  <path
     d="M 0.13203,17.97763 C 0.13203,12.44754 1.01575,8.33601 5.31949,4.8633 9.05398,1.84991 18.6531,10e-6 18.6531,10e-6 L 59.87069,1.13146 0.13205,52.1242 c 0,0 -1e-5,-27.21906 -1e-5,-34.14656 z"
     fill="#68a1da"
     fill-rule="evenodd"
     stroke="#000000"
     stroke-width="0"
     stroke-linecap="square"
     id="path42"
     style="mix-blend-mode:normal;stroke-linejoin:miter;stroke-miterlimit:10;stroke-dasharray:none;stroke-dashoffset:0" />
  <path
     d="m 132.7348,111.38361 c -0.0639,5.52972 -0.99509,9.63076 -5.33866,13.0535 -3.76907,2.97003 -13.38892,4.70887 -13.38892,4.70887 l -41.23944,1.65262 60.36164,-53.55928 c 0,0 -0.31455,27.21724 -0.39461,34.14429 z"
     data-paper-data="{&quot;index&quot;:null}"
     fill="#68a1da"
     fill-rule="evenodd"
     stroke="#000000"
     stroke-width="0"
     stroke-linecap="square"
     id="path44"
     style="mix-blend-mode:normal;stroke-linejoin:miter;stroke-miterlimit:10;stroke-dasharray:none;stroke-dashoffset:0" />
  <text
     font-size="70.1112px"
     xml:space="preserve"
     fill="#ffffff"
     fill-rule="nonzero"
     stroke="none"
     stroke-width="1.75278"
     stroke-linecap="butt"
     stroke-linejoin="miter"
     stroke-miterlimit="10"
     stroke-dasharray="none"
     stroke-dashoffset="0"
     font-family="'Microsoft YaHei', '微软雅黑', STXihei, 华文细黑"
     font-weight="normal"
     text-anchor="start"
     style="mix-blend-mode:normal"
     id="text48"
     x="31.509081"
     y="86.432663"><tspan
       x="31.509081"
       dy="0"
       id="tspan46"
       style="stroke-width:1.75278">喵</tspan></text>
  <text
     font-size="79.9444px"
     xml:space="preserve"
     fill="#ffffff"
     fill-rule="nonzero"
     stroke="none"
     stroke-width="1.99861"
     stroke-linecap="butt"
     stroke-linejoin="miter"
     stroke-miterlimit="10"
     stroke-dasharray="none"
     stroke-dashoffset="0"
     font-family="'Microsoft YaHei', '微软雅黑', STXihei, 华文细黑"
     font-weight="normal"
     text-anchor="start"
     style="mix-blend-mode:normal"
     id="text52"
     x="143.25224"
     y="89.38266"><tspan
       x="143.25224"
       dy="0"
       id="tspan50"
       style="stroke-width:1.99861">喵の家族</tspan></text>
</svg>
