<svg version="1.1" xmlns="http://www.w3.org/2000/svg" xmlns:xlink="http://www.w3.org/1999/xlink" width="364.10747" height="357.73263" viewBox="0,0,364.10747,357.73263"><g transform="translate(-57.18729,-0.10461)"><g data-paper-data="{&quot;isPaintingLayer&quot;:true}" stroke-linejoin="miter" stroke-miterlimit="10" stroke-dasharray="" stroke-dashoffset="0" style="mix-blend-mode: normal"><path d="M57.18729,74.12184c0,-40.59995 32.91285,-73.51283 73.51291,-73.51283h215.82325c19.4968,0 38.19513,7.7451 51.98144,21.53142c13.78639,13.78628 21.5315,32.48461 21.5315,51.98141v209.67693c0,40.59995 -32.91285,73.51283 -73.51288,73.51283h-215.82325c-40.59995,0 -73.51288,-32.91277 -73.51288,-73.51283z" data-paper-data="{&quot;origPos&quot;:null}" fill="#93c0ed" fill-rule="evenodd" stroke="#000000" stroke-width="0" stroke-linecap="square"/><path d="M83.94005,89.58123c0,-34.61311 28.05953,-62.6727 62.67275,-62.6727h183.99816c16.62181,0 32.56291,6.60303 44.3163,18.35642c11.75345,11.75337 18.3565,27.69447 18.3565,44.31628v178.75816c0,34.61311 -28.05956,62.6727 -62.67275,62.6727h-183.99816c-34.61311,0 -62.67275,-28.05948 -62.67275,-62.6727z" data-paper-data="{&quot;origPos&quot;:null}" fill="#78b3ed" fill-rule="evenodd" stroke="#000000" stroke-width="0" stroke-linecap="square"/><path d="M57.54842,49.27319c0,-15.12473 2.41696,-26.36972 14.18764,-35.86754c10.21379,-8.24159 36.46727,-13.30104 36.46727,-13.30104l112.72963,3.0945l-163.38449,139.46456c0,0 -0.00003,-74.44382 -0.00003,-93.39045z" fill="#68a1da" fill-rule="evenodd" stroke="#000000" stroke-width="0" stroke-linecap="square"/><path d="M420.21547,304.73746c-0.17479,15.12372 -2.72156,26.34002 -14.60117,35.70117c-10.30836,8.123 -36.61854,12.87871 -36.61854,12.87871l-112.78939,4.5199l165.08839,-146.48401c0,0 -0.86029,74.43884 -1.07925,93.38424z" data-paper-data="{&quot;index&quot;:null}" fill="#68a1da" fill-rule="evenodd" stroke="#000000" stroke-width="0" stroke-linecap="square"/><text transform="translate(149,234.6) scale(4.55,4.55)" font-size="40" xml:space="preserve" fill="#ffffff" fill-rule="nonzero" stroke="none" stroke-width="1" stroke-linecap="butt" stroke-linejoin="miter" stroke-miterlimit="10" stroke-dasharray="" stroke-dashoffset="0" font-family="&quot;Microsoft YaHei&quot;, &quot;微软雅黑&quot;, STXihei, &quot;华文细黑&quot;" font-weight="normal" text-anchor="start" style="mix-blend-mode: normal"><tspan x="0" dy="0">喵</tspan></text></g></g></svg>